# xmcd
#
# Track frame offsets: 
#        150
#        17625
#        36596
#        55175
#        72666
#        89817
#        112696
#        129620
#        149536
#        171449
#
# Disc length: 2563 seconds
#
# Revision: 0
# Processed by: cddbd v1.5.2PL0 Copyright (c) Steve Scherf et al.
# Submitted via: ExactAudioCopy v0.95b4
#
DISCID=980a010a
DTITLE=Lee Fields - Treacherous
DYEAR=2011
DGENRE=Funk
TTITLE0=We're Here To Turn It Out
TTITLE1=I Have Been Hurt
TTITLE2=I Want To Get With You
TTITLE3=Living For The Gusto
TTITLE4=Man Hunt
TTITLE5=He Doesn't Care About You
TTITLE6=At The End Of The Day
TTITLE7=Dance Like You're Naked
TTITLE8=I Want You So Bad
TTITLE9=We're Here To Turn It Out (instr)
EXTD=
EXTT0=
EXTT1=
EXTT2=
EXTT3=
EXTT4=
EXTT5=
EXTT6=
EXTT7=
EXTT8=
EXTT9=
PLAYORDER=
